<svg width="55" height="55" viewBox="0 0 55 55" fill="none" xmlns="http://www.w3.org/2000/svg">
<rect width="55" height="55" fill="url(#paint0_radial_12178_208)"/>
<path fill-rule="evenodd" clip-rule="evenodd" d="M33.56 15.415C32.7233 16.5072 32.305 17.6888 32.305 18.96V33.5156C32.305 33.8916 32.2868 34.2765 32.2504 34.6704C32.2141 35.0643 32.1595 35.4582 32.0867 35.8521C33.0143 35.673 33.8646 35.4 34.6376 35.033C35.4106 34.6659 36.1063 34.196 36.7246 33.623C37.343 33.0501 37.8796 32.3743 38.3343 31.5955C38.789 30.8166 39.1709 29.9349 39.4801 28.9502L40.0803 27.0166V13.7769C36.57 13.7769 34.3966 14.3229 33.56 15.415ZM21.4741 15.2808H19.9191V16.7847H21.4741V15.2808ZM23.0292 17.5635H21.4741V19.0674H23.0292V17.5635ZM21.4741 19.4702H19.9191V20.9741H21.4741V19.4702ZM19.9191 21.7261H18.364V23.2568H19.9191V21.7261ZM16.809 13.75H15.2539V15.2808H16.809V13.75ZM23.7522 36.9263C23.2702 35.9595 23.0292 34.8226 23.0292 33.5156V22.478H21.4741V28.1177H19.9191V24.7607H18.364V26.2646H16.809V17.9395H15.2539V30.4004C15.2539 31.9401 15.5358 33.3724 16.0996 34.6973C16.6635 36.0221 17.4774 37.1724 18.5414 38.1482C19.6054 39.1239 20.9058 39.8848 22.4426 40.4309C23.9795 40.977 25.721 41.25 27.6671 41.25L26.9441 40.78C26.4622 40.4667 25.9302 39.9878 25.3482 39.3433C24.7661 38.6987 24.2341 37.8931 23.7522 36.9263ZM32.7142 36.3354C31.5138 36.604 30.1952 36.7114 28.7584 36.6577C27.7217 36.604 26.7986 36.4563 25.9893 36.2146C25.1799 35.9729 24.466 35.6641 23.8477 35.2881C24.266 37.0785 25.039 38.4167 26.1666 39.303C27.2943 40.1892 27.8944 40.6592 27.9672 40.7129L28.8948 41.1963C30.659 41.0889 32.2322 40.7397 33.6145 40.1489C34.9968 39.5581 36.1699 38.7838 37.1339 37.8259C38.0978 36.8681 38.8299 35.7581 39.33 34.4958C39.8302 33.2336 40.0803 31.8685 40.0803 30.4004V29.1113C39.662 30.472 39.1073 31.6402 38.4161 32.616C37.725 33.5917 36.902 34.3884 35.9471 35.0061C34.9922 35.6238 33.9146 36.0669 32.7142 36.3354ZM19.8918 16.8115H18.364V18.3154H19.8918V16.8115ZM40.92 13.75C41.0653 13.75 41.1924 13.8019 41.3014 13.9057C41.4104 14.0095 41.4648 14.134 41.4648 14.2793C41.4648 14.435 41.4104 14.5647 41.3014 14.6685C41.1924 14.7723 41.0653 14.8242 40.92 14.8242C40.7746 14.8242 40.6501 14.7723 40.5463 14.6685C40.4425 14.5647 40.3906 14.435 40.3906 14.2793C40.3906 14.134 40.4425 14.0095 40.5463 13.9057C40.6501 13.8019 40.7746 13.75 40.92 13.75ZM40.92 14.7464C41.0445 14.7464 41.1509 14.7023 41.2391 14.614C41.3273 14.5258 41.3714 14.4143 41.3714 14.2793C41.3714 14.1548 41.3273 14.0484 41.2391 13.9602C41.1509 13.872 41.0445 13.8278 40.92 13.8278C40.7954 13.8278 40.6916 13.872 40.6086 13.9602C40.5255 14.0484 40.484 14.1548 40.484 14.2793C40.484 14.4143 40.5255 14.5258 40.6086 14.614C40.6916 14.7023 40.7954 14.7464 40.92 14.7464ZM41.1301 14.2715C41.1561 14.2456 41.169 14.2067 41.169 14.1548C41.169 14.0925 41.1535 14.0458 41.1223 14.0147C41.0912 13.9835 41.0341 13.968 40.9511 13.968H40.7176V14.5907H40.811V14.326H40.92L41.0912 14.5907H41.1846L41.0134 14.326C41.0653 14.3157 41.1042 14.2975 41.1301 14.2715ZM40.92 14.2482C40.9615 14.2482 40.9978 14.243 41.0289 14.2326C41.0601 14.2222 41.0756 14.1963 41.0756 14.1548C41.0756 14.1133 41.0627 14.0847 41.0367 14.0692C41.0108 14.0536 40.977 14.0458 40.9355 14.0458H40.811V14.2482H40.92Z" fill="url(#paint1_linear_12178_208)"/>
<defs>
<radialGradient id="paint0_radial_12178_208" cx="0" cy="0" r="1" gradientUnits="userSpaceOnUse" gradientTransform="translate(27.5) rotate(90) scale(55)">
<stop stop-color="#006FFF"/>
<stop offset="1" stop-color="#003C9E"/>
</radialGradient>
<linearGradient id="paint1_linear_12178_208" x1="23.9123" y1="56.027" x2="42.7753" y2="32.8545" gradientUnits="userSpaceOnUse">
<stop stop-color="#C2C4CE"/>
<stop offset="0.39697" stop-color="#D6D9E2"/>
<stop offset="1" stop-color="white"/>
</linearGradient>
</defs>
</svg>
