<svg width="57" height="56" viewBox="0 0 57 56" fill="none" xmlns="http://www.w3.org/2000/svg">
<rect width="56" height="56" transform="translate(0.5)" fill="url(#paint0_radial_16_29351)"/>
<rect width="56" height="56" transform="translate(0.5)" fill="url(#paint1_radial_16_29351)"/>
<path fill-rule="evenodd" clip-rule="evenodd" d="M34.6701 15.6953C33.8183 16.8073 33.3924 18.0104 33.3924 19.3047V34.125C33.3924 34.5078 33.3738 34.8997 33.3368 35.3008C33.2998 35.7018 33.2442 36.1029 33.1701 36.5039C34.1146 36.3216 34.9803 36.0436 35.7674 35.6699C36.5544 35.2962 37.2627 34.8177 37.8924 34.2344C38.522 33.651 39.0683 32.9629 39.5312 32.1699C39.9942 31.3769 40.3831 30.4792 40.6979 29.4766L41.309 27.5078V14.0273C37.7349 14.0273 35.522 14.5833 34.6701 15.6953ZM22.3646 15.5586H20.7812V17.0898H22.3646V15.5586ZM23.9479 17.8828H22.3646V19.4141H23.9479V17.8828ZM22.3646 19.8242H20.7812V21.3555H22.3646V19.8242ZM20.7812 22.1211H19.1979V23.6797H20.7812V22.1211ZM17.6146 14H16.0312V15.5586H17.6146V14ZM24.684 37.5977C24.1933 36.6133 23.9479 35.4557 23.9479 34.125V22.8867H22.3646V28.6289H20.7812V25.2109H19.1979V26.7422H17.6146V18.2656H16.0312V30.9531C16.0312 32.5208 16.3183 33.9792 16.8924 35.3281C17.4664 36.6771 18.2951 37.8483 19.3785 38.8418C20.4618 39.8353 21.7859 40.61 23.3507 41.166C24.9155 41.722 26.6886 42 28.6701 42L27.934 41.5215C27.4433 41.2025 26.9016 40.7148 26.309 40.0586C25.7164 39.4023 25.1748 38.582 24.684 37.5977ZM33.809 36.9961C32.5868 37.2695 31.2442 37.3789 29.7812 37.3242C28.7257 37.2695 27.7859 37.1191 26.9618 36.873C26.1377 36.627 25.4109 36.3125 24.7812 35.9297C25.2072 37.7526 25.9942 39.1152 27.1424 40.0176C28.2905 40.9199 28.9016 41.3984 28.9757 41.4531L29.9201 41.9453C31.7164 41.8359 33.3183 41.4805 34.7257 40.8789C36.1331 40.2773 37.3275 39.4889 38.309 38.5137C39.2905 37.5384 40.0359 36.4082 40.5451 35.123C41.0544 33.8379 41.309 32.4479 41.309 30.9531V29.6406C40.8831 31.026 40.3183 32.2155 39.6146 33.209C38.9109 34.2025 38.0729 35.0137 37.1007 35.6426C36.1285 36.2715 35.0313 36.7227 33.809 36.9961ZM20.7535 17.1172H19.1979V18.6484H20.7535V17.1172ZM42.1639 14C42.3119 14 42.4413 14.0528 42.5523 14.1585C42.6633 14.2642 42.7188 14.391 42.7188 14.5389C42.7188 14.6975 42.6633 14.8296 42.5523 14.9352C42.4413 15.0409 42.3119 15.0938 42.1639 15.0938C42.016 15.0938 41.8892 15.0409 41.7835 14.9352C41.6778 14.8296 41.625 14.6975 41.625 14.5389C41.625 14.391 41.6778 14.2642 41.7835 14.1585C41.8892 14.0528 42.016 14 42.1639 14ZM42.1639 15.0145C42.2908 15.0145 42.3991 14.9696 42.4889 14.8798C42.5787 14.7899 42.6236 14.6763 42.6236 14.5389C42.6236 14.4121 42.5787 14.3038 42.4889 14.214C42.3991 14.1242 42.2908 14.0793 42.1639 14.0793C42.0371 14.0793 41.9315 14.1242 41.8469 14.214C41.7624 14.3038 41.7201 14.4121 41.7201 14.5389C41.7201 14.6763 41.7624 14.7899 41.8469 14.8798C41.9315 14.9696 42.0371 15.0145 42.1639 15.0145ZM42.3779 14.531C42.4044 14.5046 42.4176 14.465 42.4176 14.4121C42.4176 14.3487 42.4017 14.3012 42.37 14.2695C42.3383 14.2378 42.2802 14.2219 42.1957 14.2219H41.9579V14.856H42.053V14.5865H42.1639L42.3383 14.856H42.4334L42.2591 14.5865C42.3119 14.5759 42.3515 14.5574 42.3779 14.531ZM42.1639 14.5072C42.2062 14.5072 42.2432 14.502 42.2749 14.4914C42.3066 14.4808 42.3225 14.4544 42.3225 14.4121C42.3225 14.3699 42.3093 14.3408 42.2828 14.325C42.2564 14.3091 42.2221 14.3012 42.1798 14.3012H42.053V14.5072H42.1639Z" fill="url(#paint2_linear_16_29351)"/>
<defs>
<radialGradient id="paint0_radial_16_29351" cx="0" cy="0" r="1" gradientUnits="userSpaceOnUse" gradientTransform="translate(28) rotate(90) scale(56)">
<stop stop-color="#006FFF"/>
<stop offset="1" stop-color="#003C9E"/>
</radialGradient>
<radialGradient id="paint1_radial_16_29351" cx="0" cy="0" r="1" gradientUnits="userSpaceOnUse" gradientTransform="translate(28) rotate(90) scale(56)">
<stop stop-color="#005ED9"/>
<stop offset="1" stop-color="#003386"/>
</radialGradient>
<linearGradient id="paint2_linear_16_29351" x1="24.847" y1="57.0457" x2="44.053" y2="33.4519" gradientUnits="userSpaceOnUse">
<stop stop-color="#C2C4CE"/>
<stop offset="0.39697" stop-color="#D6D9E2"/>
<stop offset="1" stop-color="white"/>
</linearGradient>
</defs>
</svg>
